<?xml version="1.0" standalone="no"?>
<!DOCTYPE svg PUBLIC "-//W3C//DTD SVG 1.1//EN" "http://www.w3.org/Graphics/SVG/1.1/DTD/svg11.dtd">
<svg width="329mm" height="259mm" viewBox="-30 -259 329 259" xmlns="http://www.w3.org/2000/svg" version="1.1">
<title>OpenSCAD Model</title>
<path d="
M 295.627,-0.0394268 L 296.243,-0.157084 L 296.841,-0.351118 L 297.409,-0.618467 L 297.939,-0.954915 L 298.423,-1.35516
 L 298.84,-1.7995 L 298.84,-41.13 L 283.94,-41.13 L 283.94,-84.13 L 298.84,-84.13 L 298.84,-99.13
 L 294.79,-99.13 L 294.79,-89.13 L 284.04,-89.13 L 284.04,-157.13 L 283.94,-157.13 L 283.94,-158.63
 L 298.84,-158.63 L 298.84,-173.13 L 294.79,-173.13 L 294.79,-164.63 L 283.94,-164.63 L 283.94,-211.53
 L 298.84,-211.53 L 298.84,-256.887 L 298.645,-257.123 L 298.187,-257.553 L 297.679,-257.922 L 297.129,-258.224
 L 296.545,-258.455 L 295.937,-258.611 L 295.314,-258.69 L 295,-258.69 L 295,-258.7 L 5,-258.7
 L 4.37333,-258.661 L 3.75655,-258.543 L 3.15938,-258.349 L 2.59123,-258.082 L 2.06107,-257.745 L 1.57726,-257.345
 L 1.14743,-256.887 L 0.778361,-256.379 L 0.475865,-255.829 L 0.244718,-255.245 L 0.0885639,-254.637 L 0.00986671,-254.014
 L 0.00986671,-253.7 L 0,-253.7 L 0,-90 L -25,-90 L -25.6267,-89.9606 L -26.2435,-89.8429
 L -26.8406,-89.6489 L -27.4088,-89.3815 L -27.9389,-89.0451 L -28.4227,-88.6448 L -28.8526,-88.1871 L -29.2216,-87.6791
 L -29.5241,-87.1289 L -29.7553,-86.5451 L -29.9114,-85.9369 L -29.9901,-85.3139 L -29.9901,-85 L -30,-85
 L -30,-5 L -29.9606,-4.37333 L -29.8429,-3.75655 L -29.6489,-3.15938 L -29.3815,-2.59123 L -29.0451,-2.06107
 L -28.6448,-1.57726 L -28.1871,-1.14743 L -27.6791,-0.778361 L -27.1289,-0.475865 L -26.5451,-0.244718 L -25.9369,-0.0885639
 L -25.314,-0.00986671 L -25,-0.00986671 L -25,-0 L 295,-0 z
M 7.79607,-243.587 L 6.77083,-245.182 L 6.77083,-247.078 L 7.79607,-248.673 L 9.52104,-249.461 L 11.3981,-249.191
 L 12.8312,-247.95 L 13.3655,-246.13 L 12.8312,-244.31 L 11.3981,-243.069 L 9.52104,-242.799 z
M 281.636,-243.587 L 280.611,-245.182 L 280.611,-247.078 L 281.636,-248.673 L 283.361,-249.461 L 285.238,-249.191
 L 286.671,-247.95 L 287.206,-246.13 L 286.671,-244.31 L 285.238,-243.069 L 283.361,-242.799 z
M 53.84,-229.43 L 53.84,-249.43 L 98.84,-249.43 L 98.84,-229.43 z
M 167.896,-242.377 L 166.871,-243.972 L 166.871,-245.868 L 167.896,-247.463 L 169.621,-248.251 L 171.498,-247.981
 L 172.931,-246.74 L 173.465,-244.92 L 172.931,-243.1 L 171.498,-241.859 L 169.621,-241.589 z
M 35.8161,-242.377 L 34.7908,-243.972 L 34.7908,-245.868 L 35.8161,-247.463 L 37.541,-248.251 L 39.4181,-247.981
 L 40.8512,-246.74 L 41.3855,-244.92 L 40.8512,-243.1 L 39.4181,-241.859 L 37.541,-241.589 z
M 240.286,-242.377 L 239.261,-243.972 L 239.261,-245.868 L 240.286,-247.463 L 242.011,-248.251 L 243.888,-247.981
 L 245.321,-246.74 L 245.855,-244.92 L 245.321,-243.1 L 243.888,-241.859 L 242.011,-241.589 z
M 152.844,-230.501 L 150.932,-231.063 L 149.256,-232.14 L 147.951,-233.646 L 147.124,-235.458 L 146.84,-237.43
 L 147.124,-239.402 L 147.951,-241.214 L 149.256,-242.72 L 150.932,-243.797 L 152.844,-244.359 L 154.836,-244.359
 L 156.748,-243.797 L 158.424,-242.72 L 159.729,-241.214 L 160.556,-239.402 L 160.84,-237.43 L 160.556,-235.458
 L 159.729,-233.646 L 158.424,-232.14 L 156.748,-231.063 L 154.836,-230.501 z
M 122.844,-230.501 L 120.932,-231.063 L 119.256,-232.14 L 117.951,-233.646 L 117.124,-235.458 L 116.84,-237.43
 L 117.124,-239.402 L 117.951,-241.214 L 119.256,-242.72 L 120.932,-243.797 L 122.844,-244.359 L 124.836,-244.359
 L 126.748,-243.797 L 128.424,-242.72 L 129.729,-241.214 L 130.556,-239.402 L 130.84,-237.43 L 130.556,-235.458
 L 129.729,-233.646 L 128.424,-232.14 L 126.748,-231.063 L 124.836,-230.501 z
M 239.84,-157.43 L 239.84,-202.43 L 259.84,-202.43 L 259.84,-157.43 z
M 240.286,-84.8965 L 239.261,-86.4918 L 239.261,-88.3882 L 240.286,-89.9835 L 242.011,-90.7712 L 243.888,-90.5014
 L 245.321,-89.2595 L 245.855,-87.44 L 245.321,-85.6205 L 243.888,-84.3786 L 242.011,-84.1088 z
M 12.9561,-84.8965 L 11.9308,-86.4918 L 11.9308,-88.3882 L 12.9561,-89.9835 L 14.681,-90.7712 L 16.5581,-90.5014
 L 17.9912,-89.2595 L 18.5255,-87.44 L 17.9912,-85.6205 L 16.5581,-84.3786 L 14.681,-84.1088 z
M 167.896,-84.8965 L 166.871,-86.4918 L 166.871,-88.3882 L 167.896,-89.9835 L 169.621,-90.7712 L 171.498,-90.5014
 L 172.931,-89.2595 L 173.465,-87.44 L 172.931,-85.6205 L 171.498,-84.3786 L 169.621,-84.1088 z
M -10,-82 L -10,-86 L 0,-86 L 0,-82 z
M 239.84,-32.43 L 239.84,-77.43 L 259.84,-77.43 L 259.84,-32.43 z
M -22,-23 L -22,-68 L -2,-68 L -2,-23 z
M 12.9561,-39.1765 L 11.9308,-40.7718 L 11.9308,-42.6682 L 12.9561,-44.2635 L 14.681,-45.0512 L 16.5581,-44.7814
 L 17.9912,-43.5395 L 18.5255,-41.72 L 17.9912,-39.9005 L 16.5581,-38.6586 L 14.681,-38.3888 z
M 167.896,-39.1765 L 166.871,-40.7718 L 166.871,-42.6682 L 167.896,-44.2635 L 169.621,-45.0512 L 171.498,-44.7814
 L 172.931,-43.5395 L 173.465,-41.72 L 172.931,-39.9005 L 171.498,-38.6586 L 169.621,-38.3888 z
M 53.84,-14.43 L 53.84,-34.43 L 98.84,-34.43 L 98.84,-14.43 z
M 152.844,-15.5012 L 150.932,-16.0626 L 149.256,-17.1398 L 147.951,-18.6455 L 147.124,-20.4579 L 146.84,-22.43
 L 147.124,-24.4021 L 147.951,-26.2145 L 149.256,-27.7202 L 150.932,-28.7974 L 152.844,-29.3587 L 154.836,-29.3587
 L 156.748,-28.7974 L 158.424,-27.7202 L 159.729,-26.2145 L 160.556,-24.4021 L 160.84,-22.43 L 160.556,-20.4579
 L 159.729,-18.6455 L 158.424,-17.1398 L 156.748,-16.0626 L 154.836,-15.5012 z
M 122.844,-15.5012 L 120.932,-16.0626 L 119.256,-17.1398 L 117.951,-18.6455 L 117.124,-20.4579 L 116.84,-22.43
 L 117.124,-24.4021 L 117.951,-26.2145 L 119.256,-27.7202 L 120.932,-28.7974 L 122.844,-29.3587 L 124.836,-29.3587
 L 126.748,-28.7974 L 128.424,-27.7202 L 129.729,-26.2145 L 130.556,-24.4021 L 130.84,-22.43 L 130.556,-20.4579
 L 129.729,-18.6455 L 128.424,-17.1398 L 126.748,-16.0626 L 124.836,-15.5012 z
M 242.786,-18.8565 L 241.761,-20.4518 L 241.761,-22.3482 L 242.786,-23.9435 L 244.511,-24.7312 L 246.388,-24.4614
 L 247.821,-23.2195 L 248.355,-21.4 L 247.821,-19.5805 L 246.388,-18.3386 L 244.511,-18.0688 z
M 167.896,-18.8565 L 166.871,-20.4518 L 166.871,-22.3482 L 167.896,-23.9435 L 169.621,-24.7312 L 171.498,-24.4614
 L 172.931,-23.2195 L 173.465,-21.4 L 172.931,-19.5805 L 171.498,-18.3386 L 169.621,-18.0688 z
M 7.79607,-9.88652 L 6.77083,-11.4818 L 6.77083,-13.3782 L 7.79607,-14.9735 L 9.52104,-15.7612 L 11.3981,-15.4914
 L 12.8312,-14.2495 L 13.3655,-12.43 L 12.8312,-10.6105 L 11.3981,-9.36863 L 9.52104,-9.09876 z
M 281.636,-9.88652 L 280.611,-11.4818 L 280.611,-13.3782 L 281.636,-14.9735 L 283.361,-15.7612 L 285.238,-15.4914
 L 286.671,-14.2495 L 287.206,-12.43 L 286.671,-10.6105 L 285.238,-9.36863 L 283.361,-9.09876 z
" stroke="black" fill="lightgray" stroke-width="0.5"/>
</svg>
