999
DXF from OpenSCAD
  0
SECTION
  2
HEADER
  9
$ACADVER
  1
AC1006
  9
$INSBASE
 10
0.0
 20
0.0
 30
0.0
  9
$EXTMIN
 10
-30
 20
0
  9
$EXTMAX
 10
298.84
 20
258.7
  9
$LINMIN
 10
-30
 20
0
  9
$LINMAX
 10
298.84
 20
258.7
  0
ENDSEC
  0
SECTION
  2
TABLES
  0
TABLE
  2
LTYPE
 70
1
  0
LTYPE
  2
CONTINUOUS
 70
64
  3
Solid line
 72
65
 73
0
 40
0.000000
  0
ENDTAB
  0
TABLE
  2
LAYER
 70
6
  0
LAYER
  2
0
 70
64
 62
7
  6
CONTINUOUS
  0
ENDTAB
  0
TABLE
  2
STYLE
 70
0
  0
ENDTAB
  0
ENDSEC
  0
SECTION
  2
BLOCKS
  0
ENDSEC
  0
SECTION
  2
ENTITIES
  0
LWPOLYLINE
100
AcDbEntity
  8
0
100
AcDbPolyline
 90
82
 70
1
 10
295.627
 20
0.0394268
 10
296.243
 20
0.157084
 10
296.841
 20
0.351118
 10
297.409
 20
0.618467
 10
297.939
 20
0.954915
 10
298.423
 20
1.35516
 10
298.84
 20
1.7995
 10
298.84
 20
41.13
 10
283.94
 20
41.13
 10
283.94
 20
84.13
 10
298.84
 20
84.13
 10
298.84
 20
99.13
 10
294.79
 20
99.13
 10
294.79
 20
89.13
 10
284.04
 20
89.13
 10
284.04
 20
157.13
 10
283.94
 20
157.13
 10
283.94
 20
158.63
 10
298.84
 20
158.63
 10
298.84
 20
173.13
 10
294.79
 20
173.13
 10
294.79
 20
164.63
 10
283.94
 20
164.63
 10
283.94
 20
211.53
 10
298.84
 20
211.53
 10
298.84
 20
256.887
 10
298.645
 20
257.123
 10
298.187
 20
257.553
 10
297.679
 20
257.922
 10
297.129
 20
258.224
 10
296.545
 20
258.455
 10
295.937
 20
258.611
 10
295.314
 20
258.69
 10
295
 20
258.69
 10
295
 20
258.7
 10
5
 20
258.7
 10
4.37333
 20
258.661
 10
3.75655
 20
258.543
 10
3.15938
 20
258.349
 10
2.59123
 20
258.082
 10
2.06107
 20
257.745
 10
1.57726
 20
257.345
 10
1.14743
 20
256.887
 10
0.778361
 20
256.379
 10
0.475865
 20
255.829
 10
0.244718
 20
255.245
 10
0.0885639
 20
254.637
 10
0.00986671
 20
254.014
 10
0.00986671
 20
253.7
 10
0
 20
253.7
 10
0
 20
90
 10
-25
 20
90
 10
-25.6267
 20
89.9606
 10
-26.2435
 20
89.8429
 10
-26.8406
 20
89.6489
 10
-27.4088
 20
89.3815
 10
-27.9389
 20
89.0451
 10
-28.4227
 20
88.6448
 10
-28.8526
 20
88.1871
 10
-29.2216
 20
87.6791
 10
-29.5241
 20
87.1289
 10
-29.7553
 20
86.5451
 10
-29.9114
 20
85.9369
 10
-29.9901
 20
85.3139
 10
-29.9901
 20
85
 10
-30
 20
85
 10
-30
 20
5
 10
-29.9606
 20
4.37333
 10
-29.8429
 20
3.75655
 10
-29.6489
 20
3.15938
 10
-29.3815
 20
2.59123
 10
-29.0451
 20
2.06107
 10
-28.6448
 20
1.57726
 10
-28.1871
 20
1.14743
 10
-27.6791
 20
0.778361
 10
-27.1289
 20
0.475865
 10
-26.5451
 20
0.244718
 10
-25.9369
 20
0.0885639
 10
-25.314
 20
0.00986671
 10
-25
 20
0.00986671
 10
-25
 20
0
 10
295
 20
0
  0
LWPOLYLINE
100
AcDbEntity
  8
0
100
AcDbPolyline
 90
11
 70
1
 10
7.79607
 20
243.587
 10
6.77083
 20
245.182
 10
6.77083
 20
247.078
 10
7.79607
 20
248.673
 10
9.52104
 20
249.461
 10
11.3981
 20
249.191
 10
12.8312
 20
247.95
 10
13.3655
 20
246.13
 10
12.8312
 20
244.31
 10
11.3981
 20
243.069
 10
9.52104
 20
242.799
  0
LWPOLYLINE
100
AcDbEntity
  8
0
100
AcDbPolyline
 90
11
 70
1
 10
281.636
 20
243.587
 10
280.611
 20
245.182
 10
280.611
 20
247.078
 10
281.636
 20
248.673
 10
283.361
 20
249.461
 10
285.238
 20
249.191
 10
286.671
 20
247.95
 10
287.206
 20
246.13
 10
286.671
 20
244.31
 10
285.238
 20
243.069
 10
283.361
 20
242.799
  0
LWPOLYLINE
100
AcDbEntity
  8
0
100
AcDbPolyline
 90
4
 70
1
 10
53.84
 20
229.43
 10
53.84
 20
249.43
 10
98.84
 20
249.43
 10
98.84
 20
229.43
  0
LWPOLYLINE
100
AcDbEntity
  8
0
100
AcDbPolyline
 90
11
 70
1
 10
167.896
 20
242.377
 10
166.871
 20
243.972
 10
166.871
 20
245.868
 10
167.896
 20
247.463
 10
169.621
 20
248.251
 10
171.498
 20
247.981
 10
172.931
 20
246.74
 10
173.465
 20
244.92
 10
172.931
 20
243.1
 10
171.498
 20
241.859
 10
169.621
 20
241.589
  0
LWPOLYLINE
100
AcDbEntity
  8
0
100
AcDbPolyline
 90
11
 70
1
 10
35.8161
 20
242.377
 10
34.7908
 20
243.972
 10
34.7908
 20
245.868
 10
35.8161
 20
247.463
 10
37.541
 20
248.251
 10
39.4181
 20
247.981
 10
40.8512
 20
246.74
 10
41.3855
 20
244.92
 10
40.8512
 20
243.1
 10
39.4181
 20
241.859
 10
37.541
 20
241.589
  0
LWPOLYLINE
100
AcDbEntity
  8
0
100
AcDbPolyline
 90
11
 70
1
 10
240.286
 20
242.377
 10
239.261
 20
243.972
 10
239.261
 20
245.868
 10
240.286
 20
247.463
 10
242.011
 20
248.251
 10
243.888
 20
247.981
 10
245.321
 20
246.74
 10
245.855
 20
244.92
 10
245.321
 20
243.1
 10
243.888
 20
241.859
 10
242.011
 20
241.589
  0
LWPOLYLINE
100
AcDbEntity
  8
0
100
AcDbPolyline
 90
22
 70
1
 10
152.844
 20
230.501
 10
150.932
 20
231.063
 10
149.256
 20
232.14
 10
147.951
 20
233.646
 10
147.124
 20
235.458
 10
146.84
 20
237.43
 10
147.124
 20
239.402
 10
147.951
 20
241.214
 10
149.256
 20
242.72
 10
150.932
 20
243.797
 10
152.844
 20
244.359
 10
154.836
 20
244.359
 10
156.748
 20
243.797
 10
158.424
 20
242.72
 10
159.729
 20
241.214
 10
160.556
 20
239.402
 10
160.84
 20
237.43
 10
160.556
 20
235.458
 10
159.729
 20
233.646
 10
158.424
 20
232.14
 10
156.748
 20
231.063
 10
154.836
 20
230.501
  0
LWPOLYLINE
100
AcDbEntity
  8
0
100
AcDbPolyline
 90
22
 70
1
 10
122.844
 20
230.501
 10
120.932
 20
231.063
 10
119.256
 20
232.14
 10
117.951
 20
233.646
 10
117.124
 20
235.458
 10
116.84
 20
237.43
 10
117.124
 20
239.402
 10
117.951
 20
241.214
 10
119.256
 20
242.72
 10
120.932
 20
243.797
 10
122.844
 20
244.359
 10
124.836
 20
244.359
 10
126.748
 20
243.797
 10
128.424
 20
242.72
 10
129.729
 20
241.214
 10
130.556
 20
239.402
 10
130.84
 20
237.43
 10
130.556
 20
235.458
 10
129.729
 20
233.646
 10
128.424
 20
232.14
 10
126.748
 20
231.063
 10
124.836
 20
230.501
  0
LWPOLYLINE
100
AcDbEntity
  8
0
100
AcDbPolyline
 90
4
 70
1
 10
239.84
 20
157.43
 10
239.84
 20
202.43
 10
259.84
 20
202.43
 10
259.84
 20
157.43
  0
LWPOLYLINE
100
AcDbEntity
  8
0
100
AcDbPolyline
 90
11
 70
1
 10
240.286
 20
84.8965
 10
239.261
 20
86.4918
 10
239.261
 20
88.3882
 10
240.286
 20
89.9835
 10
242.011
 20
90.7712
 10
243.888
 20
90.5014
 10
245.321
 20
89.2595
 10
245.855
 20
87.44
 10
245.321
 20
85.6205
 10
243.888
 20
84.3786
 10
242.011
 20
84.1088
  0
LWPOLYLINE
100
AcDbEntity
  8
0
100
AcDbPolyline
 90
11
 70
1
 10
12.9561
 20
84.8965
 10
11.9308
 20
86.4918
 10
11.9308
 20
88.3882
 10
12.9561
 20
89.9835
 10
14.681
 20
90.7712
 10
16.5581
 20
90.5014
 10
17.9912
 20
89.2595
 10
18.5255
 20
87.44
 10
17.9912
 20
85.6205
 10
16.5581
 20
84.3786
 10
14.681
 20
84.1088
  0
LWPOLYLINE
100
AcDbEntity
  8
0
100
AcDbPolyline
 90
11
 70
1
 10
167.896
 20
84.8965
 10
166.871
 20
86.4918
 10
166.871
 20
88.3882
 10
167.896
 20
89.9835
 10
169.621
 20
90.7712
 10
171.498
 20
90.5014
 10
172.931
 20
89.2595
 10
173.465
 20
87.44
 10
172.931
 20
85.6205
 10
171.498
 20
84.3786
 10
169.621
 20
84.1088
  0
LWPOLYLINE
100
AcDbEntity
  8
0
100
AcDbPolyline
 90
4
 70
1
 10
-10
 20
82
 10
-10
 20
86
 10
0
 20
86
 10
0
 20
82
  0
LWPOLYLINE
100
AcDbEntity
  8
0
100
AcDbPolyline
 90
4
 70
1
 10
239.84
 20
32.43
 10
239.84
 20
77.43
 10
259.84
 20
77.43
 10
259.84
 20
32.43
  0
LWPOLYLINE
100
AcDbEntity
  8
0
100
AcDbPolyline
 90
4
 70
1
 10
-22
 20
23
 10
-22
 20
68
 10
-2
 20
68
 10
-2
 20
23
  0
LWPOLYLINE
100
AcDbEntity
  8
0
100
AcDbPolyline
 90
11
 70
1
 10
12.9561
 20
39.1765
 10
11.9308
 20
40.7718
 10
11.9308
 20
42.6682
 10
12.9561
 20
44.2635
 10
14.681
 20
45.0512
 10
16.5581
 20
44.7814
 10
17.9912
 20
43.5395
 10
18.5255
 20
41.72
 10
17.9912
 20
39.9005
 10
16.5581
 20
38.6586
 10
14.681
 20
38.3888
  0
LWPOLYLINE
100
AcDbEntity
  8
0
100
AcDbPolyline
 90
11
 70
1
 10
167.896
 20
39.1765
 10
166.871
 20
40.7718
 10
166.871
 20
42.6682
 10
167.896
 20
44.2635
 10
169.621
 20
45.0512
 10
171.498
 20
44.7814
 10
172.931
 20
43.5395
 10
173.465
 20
41.72
 10
172.931
 20
39.9005
 10
171.498
 20
38.6586
 10
169.621
 20
38.3888
  0
LWPOLYLINE
100
AcDbEntity
  8
0
100
AcDbPolyline
 90
4
 70
1
 10
53.84
 20
14.43
 10
53.84
 20
34.43
 10
98.84
 20
34.43
 10
98.84
 20
14.43
  0
LWPOLYLINE
100
AcDbEntity
  8
0
100
AcDbPolyline
 90
22
 70
1
 10
152.844
 20
15.5012
 10
150.932
 20
16.0626
 10
149.256
 20
17.1398
 10
147.951
 20
18.6455
 10
147.124
 20
20.4579
 10
146.84
 20
22.43
 10
147.124
 20
24.4021
 10
147.951
 20
26.2145
 10
149.256
 20
27.7202
 10
150.932
 20
28.7974
 10
152.844
 20
29.3587
 10
154.836
 20
29.3587
 10
156.748
 20
28.7974
 10
158.424
 20
27.7202
 10
159.729
 20
26.2145
 10
160.556
 20
24.4021
 10
160.84
 20
22.43
 10
160.556
 20
20.4579
 10
159.729
 20
18.6455
 10
158.424
 20
17.1398
 10
156.748
 20
16.0626
 10
154.836
 20
15.5012
  0
LWPOLYLINE
100
AcDbEntity
  8
0
100
AcDbPolyline
 90
22
 70
1
 10
122.844
 20
15.5012
 10
120.932
 20
16.0626
 10
119.256
 20
17.1398
 10
117.951
 20
18.6455
 10
117.124
 20
20.4579
 10
116.84
 20
22.43
 10
117.124
 20
24.4021
 10
117.951
 20
26.2145
 10
119.256
 20
27.7202
 10
120.932
 20
28.7974
 10
122.844
 20
29.3587
 10
124.836
 20
29.3587
 10
126.748
 20
28.7974
 10
128.424
 20
27.7202
 10
129.729
 20
26.2145
 10
130.556
 20
24.4021
 10
130.84
 20
22.43
 10
130.556
 20
20.4579
 10
129.729
 20
18.6455
 10
128.424
 20
17.1398
 10
126.748
 20
16.0626
 10
124.836
 20
15.5012
  0
LWPOLYLINE
100
AcDbEntity
  8
0
100
AcDbPolyline
 90
11
 70
1
 10
242.786
 20
18.8565
 10
241.761
 20
20.4518
 10
241.761
 20
22.3482
 10
242.786
 20
23.9435
 10
244.511
 20
24.7312
 10
246.388
 20
24.4614
 10
247.821
 20
23.2195
 10
248.355
 20
21.4
 10
247.821
 20
19.5805
 10
246.388
 20
18.3386
 10
244.511
 20
18.0688
  0
LWPOLYLINE
100
AcDbEntity
  8
0
100
AcDbPolyline
 90
11
 70
1
 10
167.896
 20
18.8565
 10
166.871
 20
20.4518
 10
166.871
 20
22.3482
 10
167.896
 20
23.9435
 10
169.621
 20
24.7312
 10
171.498
 20
24.4614
 10
172.931
 20
23.2195
 10
173.465
 20
21.4
 10
172.931
 20
19.5805
 10
171.498
 20
18.3386
 10
169.621
 20
18.0688
  0
LWPOLYLINE
100
AcDbEntity
  8
0
100
AcDbPolyline
 90
11
 70
1
 10
7.79607
 20
9.88652
 10
6.77083
 20
11.4818
 10
6.77083
 20
13.3782
 10
7.79607
 20
14.9735
 10
9.52104
 20
15.7612
 10
11.3981
 20
15.4914
 10
12.8312
 20
14.2495
 10
13.3655
 20
12.43
 10
12.8312
 20
10.6105
 10
11.3981
 20
9.36863
 10
9.52104
 20
9.09876
  0
LWPOLYLINE
100
AcDbEntity
  8
0
100
AcDbPolyline
 90
11
 70
1
 10
281.636
 20
9.88652
 10
280.611
 20
11.4818
 10
280.611
 20
13.3782
 10
281.636
 20
14.9735
 10
283.361
 20
15.7612
 10
285.238
 20
15.4914
 10
286.671
 20
14.2495
 10
287.206
 20
12.43
 10
286.671
 20
10.6105
 10
285.238
 20
9.36863
 10
283.361
 20
9.09876
  0
ENDSEC
  0
EOF
