<?xml version="1.0" standalone="no"?>
<!DOCTYPE svg PUBLIC "-//W3C//DTD SVG 1.1//EN" "http://www.w3.org/Graphics/SVG/1.1/DTD/svg11.dtd">
<svg width="319mm" height="259mm" viewBox="-20 -259 319 259" xmlns="http://www.w3.org/2000/svg" version="1.1">
<title>OpenSCAD Model</title>
<path d="
M 295.627,-0.0394268 L 296.243,-0.157084 L 296.841,-0.351118 L 297.409,-0.618467 L 297.939,-0.954915 L 298.423,-1.35516
 L 298.84,-1.7995 L 298.84,-41.13 L 283.94,-41.13 L 283.94,-84.13 L 298.84,-84.13 L 298.84,-99.13
 L 294.79,-99.13 L 294.79,-89.13 L 284.04,-89.13 L 284.04,-157.13 L 283.94,-157.13 L 283.94,-158.63
 L 298.84,-158.63 L 298.84,-173.13 L 294.79,-173.13 L 294.79,-164.63 L 283.94,-164.63 L 283.94,-211.53
 L 298.84,-211.53 L 298.84,-256.887 L 298.645,-257.123 L 298.187,-257.553 L 297.679,-257.922 L 297.129,-258.224
 L 296.545,-258.455 L 295.937,-258.611 L 295.314,-258.69 L 295,-258.69 L 295,-258.7 L 5,-258.7
 L 4.37333,-258.661 L 3.75655,-258.543 L 3.15938,-258.349 L 2.59123,-258.082 L 2.06107,-257.745 L 1.57726,-257.345
 L 1.14743,-256.887 L 0.778361,-256.379 L 0.475865,-255.829 L 0.244718,-255.245 L 0.0885639,-254.637 L 0.00986671,-254.014
 L 0.00986671,-253.7 L 0,-253.7 L 0,-100 L -15,-100 L -15.6267,-99.9606 L -16.2435,-99.8429
 L -16.8406,-99.6489 L -17.4088,-99.3815 L -17.9389,-99.0451 L -18.4227,-98.6448 L -18.8526,-98.1871 L -19.2216,-97.6791
 L -19.5241,-97.1289 L -19.7553,-96.5451 L -19.9114,-95.9369 L -19.9901,-95.3139 L -19.9901,-95 L -20,-95
 L -20,-5 L -19.9606,-4.37333 L -19.8429,-3.75655 L -19.6489,-3.15938 L -19.3815,-2.59123 L -19.0451,-2.06107
 L -18.6448,-1.57726 L -18.1871,-1.14743 L -17.6791,-0.778361 L -17.1289,-0.475865 L -16.5451,-0.244718 L -15.9369,-0.0885639
 L -15.314,-0.00986671 L -15,-0.00986671 L -15,-0 L 295,-0 z
M 36.3372,-242.005 L 34.8575,-243.769 L 34.8575,-246.071 L 36.3372,-247.835 L 38.6044,-248.234 L 40.5981,-247.083
 L 41.3855,-244.92 L 40.5981,-242.757 L 38.6044,-241.606 z
M 168.417,-242.005 L 166.937,-243.769 L 166.937,-246.071 L 168.417,-247.835 L 170.684,-248.234 L 172.678,-247.083
 L 173.465,-244.92 L 172.678,-242.757 L 170.684,-241.606 z
M 240.807,-242.005 L 239.327,-243.769 L 239.327,-246.071 L 240.807,-247.835 L 243.074,-248.234 L 245.068,-247.083
 L 245.855,-244.92 L 245.068,-242.757 L 243.074,-241.606 z
M 9.1,-244.571 L 8.30855,-245.514 L 8.30855,-246.746 L 9.1,-247.689 L 10.3126,-247.903 L 11.3789,-247.287
 L 11.8,-246.13 L 11.3789,-244.973 L 10.3126,-244.357 z
M 282.94,-244.571 L 282.149,-245.514 L 282.149,-246.746 L 282.94,-247.689 L 284.153,-247.903 L 285.219,-247.287
 L 285.64,-246.13 L 285.219,-244.973 L 284.153,-244.357 z
M 120.34,-231.368 L 117.262,-235.036 L 117.262,-239.824 L 120.34,-243.492 L 125.056,-244.324 L 129.202,-241.93
 L 130.84,-237.43 L 129.202,-232.93 L 125.056,-230.536 z
M 150.34,-231.368 L 147.262,-235.036 L 147.262,-239.824 L 150.34,-243.492 L 155.056,-244.324 L 159.202,-241.93
 L 160.84,-237.43 L 159.202,-232.93 L 155.056,-230.536 z
M 48.84,-229.43 L 48.84,-242.763 L 98.84,-242.763 L 98.84,-229.43 z
M 239.84,-157.43 L 239.84,-207.43 L 253.173,-207.43 L 253.173,-157.43 z
M -10,-92 L -10,-96 L 0,-96 L 0,-92 z
M 168.417,-84.5254 L 166.937,-86.2889 L 166.937,-88.5911 L 168.417,-90.3546 L 170.684,-90.7544 L 172.678,-89.6033
 L 173.465,-87.44 L 172.678,-85.2767 L 170.684,-84.1256 z
M 13.4772,-84.5254 L 11.9975,-86.2889 L 11.9975,-88.5911 L 13.4772,-90.3546 L 15.7444,-90.7544 L 17.7381,-89.6033
 L 18.5255,-87.44 L 17.7381,-85.2767 L 15.7444,-84.1256 z
M 239.84,-37.43 L 239.84,-85.6781 L 239.327,-86.2889 L 239.327,-88.5911 L 240.807,-90.3546 L 243.074,-90.7544
 L 245.068,-89.6033 L 245.855,-87.44 L 245.852,-87.43 L 253.173,-87.43 L 253.173,-37.43 z
M -6.66667,-33.3333 L -6.66667,-83.3333 L 6.66667,-83.3333 L 6.66667,-33.3333 z
M 13.4772,-38.8054 L 11.9975,-40.5689 L 11.9975,-42.8711 L 13.4772,-44.6346 L 15.7444,-45.0344 L 17.7381,-43.8833
 L 18.5255,-41.72 L 17.7381,-39.5567 L 15.7444,-38.4056 z
M 168.417,-38.8054 L 166.937,-40.5689 L 166.937,-42.8711 L 168.417,-44.6346 L 170.684,-45.0344 L 172.678,-43.8833
 L 173.465,-41.72 L 172.678,-39.5567 L 170.684,-38.4056 z
M 150.34,-16.3678 L 147.262,-20.0359 L 147.262,-24.8241 L 150.34,-28.4922 L 155.056,-29.3237 L 159.202,-26.9295
 L 160.84,-22.43 L 159.202,-17.9305 L 155.056,-15.5363 z
M 120.34,-16.3678 L 117.262,-20.0359 L 117.262,-24.8241 L 120.34,-28.4922 L 125.056,-29.3237 L 129.202,-26.9295
 L 130.84,-22.43 L 129.202,-17.9305 L 125.056,-15.5363 z
M 48.84,-14.43 L 48.84,-27.7633 L 98.84,-27.7633 L 98.84,-14.43 z
M 168.417,-18.4854 L 166.937,-20.2489 L 166.937,-22.5511 L 168.417,-24.3146 L 170.684,-24.7144 L 172.678,-23.5633
 L 173.465,-21.4 L 172.678,-19.2367 L 170.684,-18.0856 z
M 282.94,-10.8712 L 282.149,-11.8144 L 282.149,-13.0456 L 282.94,-13.9888 L 284.153,-14.2027 L 285.219,-13.587
 L 285.64,-12.43 L 285.219,-11.273 L 284.153,-10.6573 z
M 9.1,-10.8712 L 8.30855,-11.8144 L 8.30855,-13.0456 L 9.1,-13.9888 L 10.3126,-14.2027 L 11.3789,-13.587
 L 11.8,-12.43 L 11.3789,-11.273 L 10.3126,-10.6573 z
" stroke="black" fill="lightgray" stroke-width="0.5"/>
</svg>
