<?xml version="1.0" standalone="no"?>
<!DOCTYPE svg PUBLIC "-//W3C//DTD SVG 1.1//EN" "http://www.w3.org/Graphics/SVG/1.1/DTD/svg11.dtd">
<svg width="319mm" height="259mm" viewBox="-20 -259 319 259" xmlns="http://www.w3.org/2000/svg" version="1.1">
<title>OpenSCAD Model</title>
<path d="
M 295.627,-0.0394268 L 296.243,-0.157084 L 296.841,-0.351118 L 297.409,-0.618467 L 297.939,-0.954915 L 298.423,-1.35516
 L 298.84,-1.7995 L 298.84,-41.13 L 283.94,-41.13 L 283.94,-84.13 L 298.84,-84.13 L 298.84,-99.13
 L 294.79,-99.13 L 294.79,-89.13 L 284.04,-89.13 L 284.04,-157.13 L 283.94,-157.13 L 283.94,-158.63
 L 298.84,-158.63 L 298.84,-173.13 L 294.79,-173.13 L 294.79,-164.63 L 283.94,-164.63 L 283.94,-211.53
 L 298.84,-211.53 L 298.84,-256.887 L 298.645,-257.123 L 298.187,-257.553 L 297.679,-257.922 L 297.129,-258.224
 L 296.545,-258.455 L 295.937,-258.611 L 295.314,-258.69 L 295,-258.69 L 295,-258.7 L 5,-258.7
 L 4.37333,-258.661 L 3.75655,-258.543 L 3.15938,-258.349 L 2.59123,-258.082 L 2.06107,-257.745 L 1.57726,-257.345
 L 1.14743,-256.887 L 0.778361,-256.379 L 0.475865,-255.829 L 0.244718,-255.245 L 0.0885639,-254.637 L 0.00986671,-254.014
 L 0.00986671,-253.7 L 0,-253.7 L 0,-100 L -15,-100 L -15.6267,-99.9606 L -16.2435,-99.8429
 L -16.8406,-99.6489 L -17.4088,-99.3815 L -17.9389,-99.0451 L -18.4227,-98.6448 L -18.8526,-98.1871 L -19.2216,-97.6791
 L -19.5241,-97.1289 L -19.7553,-96.5451 L -19.9114,-95.9369 L -19.9901,-95.3139 L -19.9901,-95 L -20,-95
 L -20,-5 L -19.9606,-4.37333 L -19.8429,-3.75655 L -19.6489,-3.15938 L -19.3815,-2.59123 L -19.0451,-2.06107
 L -18.6448,-1.57726 L -18.1871,-1.14743 L -17.6791,-0.778361 L -17.1289,-0.475865 L -16.5451,-0.244718 L -15.9369,-0.0885639
 L -15.314,-0.00986671 L -15,-0.00986671 L -15,-0 L 295,-0 z
M 9.1,-244.571 L 8.30855,-245.514 L 8.30855,-246.746 L 9.1,-247.689 L 10.3126,-247.903 L 11.3789,-247.287
 L 11.8,-246.13 L 11.3789,-244.973 L 10.3126,-244.357 z
M 282.94,-244.571 L 282.149,-245.514 L 282.149,-246.746 L 282.94,-247.689 L 284.153,-247.903 L 285.219,-247.287
 L 285.64,-246.13 L 285.219,-244.973 L 284.153,-244.357 z
M 80,-234.13 L 80,-238.13 L 90,-238.13 L 90,-234.13 z
M 200,-234.13 L 200,-238.13 L 210,-238.13 L 210,-234.13 z
M 40,-234.13 L 40,-238.13 L 50,-238.13 L 50,-234.13 z
M 120,-234.13 L 120,-238.13 L 130,-238.13 L 130,-234.13 z
M 160,-234.13 L 160,-238.13 L 170,-238.13 L 170,-234.13 z
M 200,-152.63 L 200,-156.63 L 210,-156.63 L 210,-152.63 z
M 80,-152.63 L 80,-156.63 L 90,-156.63 L 90,-152.63 z
M 160,-152.63 L 160,-156.63 L 170,-156.63 L 170,-152.63 z
M 40,-152.63 L 40,-156.63 L 50,-156.63 L 50,-152.63 z
M 130,-152.63 L 120,-152.63 L 120,-156.63 L 130,-156.63 z
M 200,-137.03 L 200,-141.03 L 210,-141.03 L 210,-137.03 z
M 160,-137.03 L 160,-141.03 L 170,-141.03 L 170,-137.03 z
M 40,-137.03 L 40,-141.03 L 50,-141.03 L 50,-137.03 z
M 120,-137.03 L 120,-141.03 L 130,-141.03 L 130,-137.03 z
M 80,-137.03 L 80,-141.03 L 90,-141.03 L 90,-137.03 z
M 200,-105.28 L 200,-109.28 L 210,-109.28 L 210,-105.28 z
M 120,-105.28 L 120,-109.28 L 130,-109.28 L 130,-105.28 z
M 40,-109.28 L 50,-109.28 L 50,-105.28 L 40,-105.28 z
M 170,-105.28 L 160,-105.28 L 160,-109.28 L 170,-109.28 z
M -10,-92 L -10,-96 L 0,-96 L 0,-92 z
M -6.66667,-33.3333 L -6.66667,-83.3333 L 6.66667,-83.3333 L 6.66667,-33.3333 z
M 200,-35.43 L 200,-39.43 L 210,-39.43 L 210,-35.43 z
M 80,-35.43 L 80,-39.43 L 90,-39.43 L 90,-35.43 z
M 160,-35.43 L 160,-39.43 L 170,-39.43 L 170,-35.43 z
M 120,-35.43 L 120,-39.43 L 130,-39.43 L 130,-35.43 z
M 40,-35.43 L 40,-39.43 L 50,-39.43 L 50,-35.43 z
M 282.94,-10.8712 L 282.149,-11.8144 L 282.149,-13.0456 L 282.94,-13.9888 L 284.153,-14.2027 L 285.219,-13.587
 L 285.64,-12.43 L 285.219,-11.273 L 284.153,-10.6573 z
M 9.1,-10.8712 L 8.30855,-11.8144 L 8.30855,-13.0456 L 9.1,-13.9888 L 10.3126,-14.2027 L 11.3789,-13.587
 L 11.8,-12.43 L 11.3789,-11.273 L 10.3126,-10.6573 z
M 90,-105.28 L 80,-105.28 L 80,-109.28 L 90,-109.28 z
" stroke="black" fill="lightgray" stroke-width="0.5"/>
</svg>
