<?xml version="1.0" standalone="no"?>
<!DOCTYPE svg PUBLIC "-//W3C//DTD SVG 1.1//EN" "http://www.w3.org/Graphics/SVG/1.1/DTD/svg11.dtd">
<svg width="329mm" height="259mm" viewBox="-30 -259 329 259" xmlns="http://www.w3.org/2000/svg" version="1.1">
<title>OpenSCAD Model</title>
<path d="
M 295.627,-0.0394268 L 296.243,-0.157084 L 296.841,-0.351118 L 297.409,-0.618467 L 297.939,-0.954915 L 298.423,-1.35516
 L 298.84,-1.7995 L 298.84,-41.13 L 283.94,-41.13 L 283.94,-84.13 L 298.84,-84.13 L 298.84,-99.13
 L 294.79,-99.13 L 294.79,-89.13 L 284.04,-89.13 L 284.04,-157.13 L 283.94,-157.13 L 283.94,-158.63
 L 298.84,-158.63 L 298.84,-173.13 L 294.79,-173.13 L 294.79,-164.63 L 283.94,-164.63 L 283.94,-211.53
 L 298.84,-211.53 L 298.84,-256.887 L 298.645,-257.123 L 298.187,-257.553 L 297.679,-257.922 L 297.129,-258.224
 L 296.545,-258.455 L 295.937,-258.611 L 295.314,-258.69 L 295,-258.69 L 295,-258.7 L 5,-258.7
 L 4.37333,-258.661 L 3.75655,-258.543 L 3.15938,-258.349 L 2.59123,-258.082 L 2.06107,-257.745 L 1.57726,-257.345
 L 1.14743,-256.887 L 0.778361,-256.379 L 0.475865,-255.829 L 0.244718,-255.245 L 0.0885639,-254.637 L 0.00986671,-254.014
 L 0.00986671,-253.7 L 0,-253.7 L 0,-90 L -25,-90 L -25.6267,-89.9606 L -26.2435,-89.8429
 L -26.8406,-89.6489 L -27.4088,-89.3815 L -27.9389,-89.0451 L -28.4227,-88.6448 L -28.8526,-88.1871 L -29.2216,-87.6791
 L -29.5241,-87.1289 L -29.7553,-86.5451 L -29.9114,-85.9369 L -29.9901,-85.3139 L -29.9901,-85 L -30,-85
 L -30,-5 L -29.9606,-4.37333 L -29.8429,-3.75655 L -29.6489,-3.15938 L -29.3815,-2.59123 L -29.0451,-2.06107
 L -28.6448,-1.57726 L -28.1871,-1.14743 L -27.6791,-0.778361 L -27.1289,-0.475865 L -26.5451,-0.244718 L -25.9369,-0.0885639
 L -25.314,-0.00986671 L -25,-0.00986671 L -25,-0 L 295,-0 z
M 281.636,-243.587 L 280.611,-245.182 L 280.611,-247.078 L 281.636,-248.673 L 283.361,-249.461 L 285.238,-249.191
 L 286.671,-247.95 L 287.206,-246.13 L 286.671,-244.31 L 285.238,-243.069 L 283.361,-242.799 z
M 7.79607,-243.587 L 6.77083,-245.182 L 6.77083,-247.078 L 7.79607,-248.673 L 9.52104,-249.461 L 11.3981,-249.191
 L 12.8312,-247.95 L 13.3655,-246.13 L 12.8312,-244.31 L 11.3981,-243.069 L 9.52104,-242.799 z
M 160,-234.13 L 160,-238.13 L 170,-238.13 L 170,-234.13 z
M 200,-234.13 L 200,-238.13 L 210,-238.13 L 210,-234.13 z
M 40,-234.13 L 40,-238.13 L 50,-238.13 L 50,-234.13 z
M 120,-234.13 L 120,-238.13 L 130,-238.13 L 130,-234.13 z
M 80,-234.13 L 80,-238.13 L 90,-238.13 L 90,-234.13 z
M 120,-152.63 L 120,-156.63 L 130,-156.63 L 130,-152.63 z
M 160,-152.63 L 160,-156.63 L 170,-156.63 L 170,-152.63 z
M 40,-152.63 L 40,-156.63 L 50,-156.63 L 50,-152.63 z
M 80,-152.63 L 80,-156.63 L 90,-156.63 L 90,-152.63 z
M 200,-152.63 L 200,-156.63 L 210,-156.63 L 210,-152.63 z
M 80,-137.03 L 80,-141.03 L 90,-141.03 L 90,-137.03 z
M 160,-137.03 L 160,-141.03 L 170,-141.03 L 170,-137.03 z
M 40,-137.03 L 40,-141.03 L 50,-141.03 L 50,-137.03 z
M 210,-137.03 L 200,-137.03 L 200,-141.03 L 210,-141.03 z
M 120,-137.03 L 120,-141.03 L 130,-141.03 L 130,-137.03 z
M 40,-105.28 L 40,-109.28 L 50,-109.28 L 50,-105.28 z
M 200,-105.28 L 200,-109.28 L 210,-109.28 L 210,-105.28 z
M 160,-105.28 L 160,-109.28 L 170,-109.28 L 170,-105.28 z
M 120,-105.28 L 120,-109.28 L 130,-109.28 L 130,-105.28 z
M 90,-105.28 L 80,-105.28 L 80,-109.28 L 90,-109.28 z
M -10,-82 L -10,-86 L 0,-86 L 0,-82 z
M -22,-23 L -22,-68 L -2,-68 L -2,-23 z
M 200,-35.43 L 200,-39.43 L 210,-39.43 L 210,-35.43 z
M 40,-35.43 L 40,-39.43 L 50,-39.43 L 50,-35.43 z
M 120,-35.43 L 120,-39.43 L 130,-39.43 L 130,-35.43 z
M 80,-35.43 L 80,-39.43 L 90,-39.43 L 90,-35.43 z
M 160,-35.43 L 160,-39.43 L 170,-39.43 L 170,-35.43 z
M 7.79607,-9.88652 L 6.77083,-11.4818 L 6.77083,-13.3782 L 7.79607,-14.9735 L 9.52104,-15.7612 L 11.3981,-15.4914
 L 12.8312,-14.2495 L 13.3655,-12.43 L 12.8312,-10.6105 L 11.3981,-9.36863 L 9.52104,-9.09876 z
M 281.636,-9.88652 L 280.611,-11.4818 L 280.611,-13.3782 L 281.636,-14.9735 L 283.361,-15.7612 L 285.238,-15.4914
 L 286.671,-14.2495 L 287.206,-12.43 L 286.671,-10.6105 L 285.238,-9.36863 L 283.361,-9.09876 z
" stroke="black" fill="lightgray" stroke-width="0.5"/>
</svg>
