999
DXF from OpenSCAD
  0
SECTION
  2
HEADER
  9
$ACADVER
  1
AC1006
  9
$INSBASE
 10
0.0
 20
0.0
 30
0.0
  9
$EXTMIN
 10
-30
 20
0
  9
$EXTMAX
 10
298.84
 20
258.7
  9
$LINMIN
 10
-30
 20
0
  9
$LINMAX
 10
298.84
 20
258.7
  0
ENDSEC
  0
SECTION
  2
TABLES
  0
TABLE
  2
LTYPE
 70
1
  0
LTYPE
  2
CONTINUOUS
 70
64
  3
Solid line
 72
65
 73
0
 40
0.000000
  0
ENDTAB
  0
TABLE
  2
LAYER
 70
6
  0
LAYER
  2
0
 70
64
 62
7
  6
CONTINUOUS
  0
ENDTAB
  0
TABLE
  2
STYLE
 70
0
  0
ENDTAB
  0
ENDSEC
  0
SECTION
  2
BLOCKS
  0
ENDSEC
  0
SECTION
  2
ENTITIES
  0
LWPOLYLINE
100
AcDbEntity
  8
0
100
AcDbPolyline
 90
82
 70
1
 10
295.627
 20
0.0394268
 10
296.243
 20
0.157084
 10
296.841
 20
0.351118
 10
297.409
 20
0.618467
 10
297.939
 20
0.954915
 10
298.423
 20
1.35516
 10
298.84
 20
1.7995
 10
298.84
 20
41.13
 10
283.94
 20
41.13
 10
283.94
 20
84.13
 10
298.84
 20
84.13
 10
298.84
 20
99.13
 10
294.79
 20
99.13
 10
294.79
 20
89.13
 10
284.04
 20
89.13
 10
284.04
 20
157.13
 10
283.94
 20
157.13
 10
283.94
 20
158.63
 10
298.84
 20
158.63
 10
298.84
 20
173.13
 10
294.79
 20
173.13
 10
294.79
 20
164.63
 10
283.94
 20
164.63
 10
283.94
 20
211.53
 10
298.84
 20
211.53
 10
298.84
 20
256.887
 10
298.645
 20
257.123
 10
298.187
 20
257.553
 10
297.679
 20
257.922
 10
297.129
 20
258.224
 10
296.545
 20
258.455
 10
295.937
 20
258.611
 10
295.314
 20
258.69
 10
295
 20
258.69
 10
295
 20
258.7
 10
5
 20
258.7
 10
4.37333
 20
258.661
 10
3.75655
 20
258.543
 10
3.15938
 20
258.349
 10
2.59123
 20
258.082
 10
2.06107
 20
257.745
 10
1.57726
 20
257.345
 10
1.14743
 20
256.887
 10
0.778361
 20
256.379
 10
0.475865
 20
255.829
 10
0.244718
 20
255.245
 10
0.0885639
 20
254.637
 10
0.00986671
 20
254.014
 10
0.00986671
 20
253.7
 10
0
 20
253.7
 10
0
 20
90
 10
-25
 20
90
 10
-25.6267
 20
89.9606
 10
-26.2435
 20
89.8429
 10
-26.8406
 20
89.6489
 10
-27.4088
 20
89.3815
 10
-27.9389
 20
89.0451
 10
-28.4227
 20
88.6448
 10
-28.8526
 20
88.1871
 10
-29.2216
 20
87.6791
 10
-29.5241
 20
87.1289
 10
-29.7553
 20
86.5451
 10
-29.9114
 20
85.9369
 10
-29.9901
 20
85.3139
 10
-29.9901
 20
85
 10
-30
 20
85
 10
-30
 20
5
 10
-29.9606
 20
4.37333
 10
-29.8429
 20
3.75655
 10
-29.6489
 20
3.15938
 10
-29.3815
 20
2.59123
 10
-29.0451
 20
2.06107
 10
-28.6448
 20
1.57726
 10
-28.1871
 20
1.14743
 10
-27.6791
 20
0.778361
 10
-27.1289
 20
0.475865
 10
-26.5451
 20
0.244718
 10
-25.9369
 20
0.0885639
 10
-25.314
 20
0.00986671
 10
-25
 20
0.00986671
 10
-25
 20
0
 10
295
 20
0
  0
LWPOLYLINE
100
AcDbEntity
  8
0
100
AcDbPolyline
 90
11
 70
1
 10
281.636
 20
243.587
 10
280.611
 20
245.182
 10
280.611
 20
247.078
 10
281.636
 20
248.673
 10
283.361
 20
249.461
 10
285.238
 20
249.191
 10
286.671
 20
247.95
 10
287.206
 20
246.13
 10
286.671
 20
244.31
 10
285.238
 20
243.069
 10
283.361
 20
242.799
  0
LWPOLYLINE
100
AcDbEntity
  8
0
100
AcDbPolyline
 90
11
 70
1
 10
7.79607
 20
243.587
 10
6.77083
 20
245.182
 10
6.77083
 20
247.078
 10
7.79607
 20
248.673
 10
9.52104
 20
249.461
 10
11.3981
 20
249.191
 10
12.8312
 20
247.95
 10
13.3655
 20
246.13
 10
12.8312
 20
244.31
 10
11.3981
 20
243.069
 10
9.52104
 20
242.799
  0
LWPOLYLINE
100
AcDbEntity
  8
0
100
AcDbPolyline
 90
4
 70
1
 10
160
 20
234.13
 10
160
 20
238.13
 10
170
 20
238.13
 10
170
 20
234.13
  0
LWPOLYLINE
100
AcDbEntity
  8
0
100
AcDbPolyline
 90
4
 70
1
 10
200
 20
234.13
 10
200
 20
238.13
 10
210
 20
238.13
 10
210
 20
234.13
  0
LWPOLYLINE
100
AcDbEntity
  8
0
100
AcDbPolyline
 90
4
 70
1
 10
40
 20
234.13
 10
40
 20
238.13
 10
50
 20
238.13
 10
50
 20
234.13
  0
LWPOLYLINE
100
AcDbEntity
  8
0
100
AcDbPolyline
 90
4
 70
1
 10
120
 20
234.13
 10
120
 20
238.13
 10
130
 20
238.13
 10
130
 20
234.13
  0
LWPOLYLINE
100
AcDbEntity
  8
0
100
AcDbPolyline
 90
4
 70
1
 10
80
 20
234.13
 10
80
 20
238.13
 10
90
 20
238.13
 10
90
 20
234.13
  0
LWPOLYLINE
100
AcDbEntity
  8
0
100
AcDbPolyline
 90
4
 70
1
 10
120
 20
152.63
 10
120
 20
156.63
 10
130
 20
156.63
 10
130
 20
152.63
  0
LWPOLYLINE
100
AcDbEntity
  8
0
100
AcDbPolyline
 90
4
 70
1
 10
160
 20
152.63
 10
160
 20
156.63
 10
170
 20
156.63
 10
170
 20
152.63
  0
LWPOLYLINE
100
AcDbEntity
  8
0
100
AcDbPolyline
 90
4
 70
1
 10
40
 20
152.63
 10
40
 20
156.63
 10
50
 20
156.63
 10
50
 20
152.63
  0
LWPOLYLINE
100
AcDbEntity
  8
0
100
AcDbPolyline
 90
4
 70
1
 10
80
 20
152.63
 10
80
 20
156.63
 10
90
 20
156.63
 10
90
 20
152.63
  0
LWPOLYLINE
100
AcDbEntity
  8
0
100
AcDbPolyline
 90
4
 70
1
 10
200
 20
152.63
 10
200
 20
156.63
 10
210
 20
156.63
 10
210
 20
152.63
  0
LWPOLYLINE
100
AcDbEntity
  8
0
100
AcDbPolyline
 90
4
 70
1
 10
80
 20
137.03
 10
80
 20
141.03
 10
90
 20
141.03
 10
90
 20
137.03
  0
LWPOLYLINE
100
AcDbEntity
  8
0
100
AcDbPolyline
 90
4
 70
1
 10
160
 20
137.03
 10
160
 20
141.03
 10
170
 20
141.03
 10
170
 20
137.03
  0
LWPOLYLINE
100
AcDbEntity
  8
0
100
AcDbPolyline
 90
4
 70
1
 10
40
 20
137.03
 10
40
 20
141.03
 10
50
 20
141.03
 10
50
 20
137.03
  0
LWPOLYLINE
100
AcDbEntity
  8
0
100
AcDbPolyline
 90
4
 70
1
 10
210
 20
137.03
 10
200
 20
137.03
 10
200
 20
141.03
 10
210
 20
141.03
  0
LWPOLYLINE
100
AcDbEntity
  8
0
100
AcDbPolyline
 90
4
 70
1
 10
120
 20
137.03
 10
120
 20
141.03
 10
130
 20
141.03
 10
130
 20
137.03
  0
LWPOLYLINE
100
AcDbEntity
  8
0
100
AcDbPolyline
 90
4
 70
1
 10
40
 20
105.28
 10
40
 20
109.28
 10
50
 20
109.28
 10
50
 20
105.28
  0
LWPOLYLINE
100
AcDbEntity
  8
0
100
AcDbPolyline
 90
4
 70
1
 10
200
 20
105.28
 10
200
 20
109.28
 10
210
 20
109.28
 10
210
 20
105.28
  0
LWPOLYLINE
100
AcDbEntity
  8
0
100
AcDbPolyline
 90
4
 70
1
 10
160
 20
105.28
 10
160
 20
109.28
 10
170
 20
109.28
 10
170
 20
105.28
  0
LWPOLYLINE
100
AcDbEntity
  8
0
100
AcDbPolyline
 90
4
 70
1
 10
120
 20
105.28
 10
120
 20
109.28
 10
130
 20
109.28
 10
130
 20
105.28
  0
LWPOLYLINE
100
AcDbEntity
  8
0
100
AcDbPolyline
 90
4
 70
1
 10
90
 20
105.28
 10
80
 20
105.28
 10
80
 20
109.28
 10
90
 20
109.28
  0
LWPOLYLINE
100
AcDbEntity
  8
0
100
AcDbPolyline
 90
4
 70
1
 10
-10
 20
82
 10
-10
 20
86
 10
0
 20
86
 10
0
 20
82
  0
LWPOLYLINE
100
AcDbEntity
  8
0
100
AcDbPolyline
 90
4
 70
1
 10
-22
 20
23
 10
-22
 20
68
 10
-2
 20
68
 10
-2
 20
23
  0
LWPOLYLINE
100
AcDbEntity
  8
0
100
AcDbPolyline
 90
4
 70
1
 10
200
 20
35.43
 10
200
 20
39.43
 10
210
 20
39.43
 10
210
 20
35.43
  0
LWPOLYLINE
100
AcDbEntity
  8
0
100
AcDbPolyline
 90
4
 70
1
 10
40
 20
35.43
 10
40
 20
39.43
 10
50
 20
39.43
 10
50
 20
35.43
  0
LWPOLYLINE
100
AcDbEntity
  8
0
100
AcDbPolyline
 90
4
 70
1
 10
120
 20
35.43
 10
120
 20
39.43
 10
130
 20
39.43
 10
130
 20
35.43
  0
LWPOLYLINE
100
AcDbEntity
  8
0
100
AcDbPolyline
 90
4
 70
1
 10
80
 20
35.43
 10
80
 20
39.43
 10
90
 20
39.43
 10
90
 20
35.43
  0
LWPOLYLINE
100
AcDbEntity
  8
0
100
AcDbPolyline
 90
4
 70
1
 10
160
 20
35.43
 10
160
 20
39.43
 10
170
 20
39.43
 10
170
 20
35.43
  0
LWPOLYLINE
100
AcDbEntity
  8
0
100
AcDbPolyline
 90
11
 70
1
 10
7.79607
 20
9.88652
 10
6.77083
 20
11.4818
 10
6.77083
 20
13.3782
 10
7.79607
 20
14.9735
 10
9.52104
 20
15.7612
 10
11.3981
 20
15.4914
 10
12.8312
 20
14.2495
 10
13.3655
 20
12.43
 10
12.8312
 20
10.6105
 10
11.3981
 20
9.36863
 10
9.52104
 20
9.09876
  0
LWPOLYLINE
100
AcDbEntity
  8
0
100
AcDbPolyline
 90
11
 70
1
 10
281.636
 20
9.88652
 10
280.611
 20
11.4818
 10
280.611
 20
13.3782
 10
281.636
 20
14.9735
 10
283.361
 20
15.7612
 10
285.238
 20
15.4914
 10
286.671
 20
14.2495
 10
287.206
 20
12.43
 10
286.671
 20
10.6105
 10
285.238
 20
9.36863
 10
283.361
 20
9.09876
  0
ENDSEC
  0
EOF
